<?xml version="1.0"?>
<svg xmlns="http://www.w3.org/2000/svg" viewBox="0 0 26 26">
    <path style="text-indent:0;text-align:start;line-height:normal;text-transform:none;block-progression:tb;-inkscape-font-specification:Sans" d="M 7 0 C 4.795 0 3 1.795 3 4 L 3 22 C 3 24.205 4.795 26 7 26 L 14.71875 26 C 14.06875 25.428 13.53075 24.754 13.09375 24 L 7 24 C 5.896 24 5 23.104 5 22 L 5 4 C 5 2.896 5.896 2 7 2 L 14.28125 2 C 15.00225 2.184 15 3.0505 15 3.9375 L 15 7 C 15 7.551 15.449 8 16 8 L 19 8 C 19.998 8 21 8.005 21 9 L 21 12.0625 C 21.699 12.1495 22.369 12.33775 23 12.59375 L 23 8 C 23 6.938 22.02725 5.92975 20.28125 4.21875 C 20.03725 3.97875 19.77725 3.71675 19.53125 3.46875 C 19.28325 3.22275 19.02125 2.994 18.78125 2.75 C 17.06925 1.003 16.063 0 15 0 L 7 0 z M 7.8125 10 A 1.001098 1.001098 0 0 0 8 12 L 18 12 A 1.0001 1.0001 0 1 0 18 10 L 8 10 A 1.0001 1.0001 0 0 0 7.90625 10 A 1.001098 1.001098 0 0 0 7.8125 10 z M 8 14 C 7.448 14 7 14.447 7 15 C 7 15.553 7.448 16 8 16 L 13.09375 16 C 13.53075 15.246 14.06875 14.572 14.71875 14 L 8 14 z M 20 14 C 16.686 14 14 16.686 14 20 C 14 23.314 16.686 26 20 26 C 23.314 26 26 23.314 26 20 C 26 16.686 23.314 14 20 14 z M 19 16 L 21 16 L 21 19 L 24 19 L 24 21 L 21 21 L 21 24 L 19 24 L 19 21 L 16 21 L 16 19 L 19 19 L 19 16 z M 8 18 C 7.448 18 7 18.447 7 19 C 7 19.553 7.448 20 8 20 L 12 20 C 12 19.308 12.085 18.64 12.25 18 L 8 18 z" overflow="visible" font-family="Sans"/>
</svg>
